<?xml version="1.0" encoding="utf-8"?>
<!-- Generator: Adobe Illustrator 22.1.0, SVG Export Plug-In . SVG Version: 6.00 Build 0)  -->
<svg version="1.1" id="Capa_1" xmlns="http://www.w3.org/2000/svg" xmlns:xlink="http://www.w3.org/1999/xlink" x="0px" y="0px"
	 viewBox="0 0 384 213.2" enable-background="new 0 0 384 213.2" xml:space="preserve">
<path fill="#FFFFFF" d="M360.8,152.3c-8-4.1-19.9-7.3-34.9-11.4c-19.6-5.3-44.1-12-65.2-22.5c-20.3-10.1-36.7-11.5-58.1-11.7V91.4
	c0-4.2,2.3-7.9,5.6-9.3c16-6.6,26.4-22.1,26.4-39.4c0-23.5-19.1-42.7-42.7-42.7s-42.6,19.1-42.6,42.6c0,5.9,4.8,10.7,10.7,10.7
	s10.7-4.8,10.7-10.7c0-11.8,9.6-21.3,21.3-21.3s21.3,9.6,21.3,21.3c0,8.7-5.2,16.4-13.2,19.7c-11.4,4.7-18.8,16.1-18.8,29.1v15.3
	c-21.4,0.2-37.8,1.6-58.1,11.7c-21,10.5-45.5,17.2-65.2,22.5c-15,4.1-26.9,7.3-34.9,11.4C8.8,159.6,0,174.2,0,190.2v12.3
	c0,5.9,4.8,10.7,10.7,10.7h362.6c5.9,0,10.7-4.8,10.7-10.7v-12.2C384,174.2,375.1,159.7,360.8,152.3z M362.6,192H21.3v-1.7
	c0-8,4.4-15.3,11.5-19c6-3.1,17.5-6.2,30.8-9.8c20.6-5.6,46.2-12.6,69.1-24c19.1-9.5,33.3-9.5,59.2-9.5s40.1,0,59.2,9.5
	c22.9,11.5,48.5,18.4,69.1,24c13.3,3.6,24.8,6.7,30.8,9.8c7.1,3.7,11.6,10.9,11.6,19V192L362.6,192z"/>
</svg>
