<?xml version="1.0" encoding="utf-8"?>
<!-- Generator: Adobe Illustrator 22.1.0, SVG Export Plug-In . SVG Version: 6.00 Build 0)  -->
<svg version="1.1" id="Слой_1" xmlns="http://www.w3.org/2000/svg" xmlns:xlink="http://www.w3.org/1999/xlink" x="0px" y="0px"
	 viewBox="0 0 253.5 51.7" enable-background="new 0 0 253.5 51.7" xml:space="preserve">
<path fill="#14E5EF" d="M0,44.2c0-2.2,0-4.3,0-6.5c0-0.3,0.1-0.6,0.2-0.9C6.9,25.2,13.5,13.5,20.2,1.8c0.2-0.4,0.5-0.6,1-0.6
	c2.4,0,4.8,0,7.2,0c0.5,0,0.7,0.2,0.9,0.6C36.6,15,43.8,28.2,51.1,41.4c0.2,0.4,0.2,0.8,0.1,1.2c-1,2.7-1.9,5.5-2.8,8.2
	c-0.3,0.9-0.3,0.9-1.3,0.9c-1.5,0-3,0-4.5,0c-0.4,0-0.7-0.1-0.9-0.5c-1.5-2.7-3-5.4-4.4-8.1c-0.2-0.3-0.4-0.5-0.8-0.5
	c-7.8,0-15.5,0-23.3,0c-0.4,0-0.6,0.1-0.7,0.4c-1.5,2.7-3,5.4-4.5,8.2c-0.2,0.4-0.5,0.6-0.9,0.5c-2.1,0-4.2,0-6.2,0
	c-0.7,0-0.8-0.2-0.8-0.8C0,48.6,0,46.4,0,44.2z M29,12.8c-0.1,0.2-0.2,0.3-0.3,0.5c-1,1.9-2,3.7-3.1,5.6c-0.2,0.4-0.3,0.7,0,1.2
	c2.4,4.3,4.8,8.6,7.1,12.9c0.5,0.9,1,1.8,1.5,2.7c0.3,0.5,0,0.8-0.5,0.9c-0.1,0-0.2,0-0.3,0c-5.8,0-11.6,0-17.4,0
	c-0.1,0-0.2,0-0.4,0c-0.4,0-0.5-0.3-0.4-0.7c0-0.2,0.1-0.3,0.2-0.5c4.3-7.9,8.6-15.7,13-23.6c0.1-0.2,0.4-0.5,0.6-0.5
	c0.2,0,0.5,0.3,0.6,0.5c1.6,3,3.3,6,4.9,8.9c3.7,6.8,7.4,13.6,11.1,20.4c0.2,0.3,0.4,0.4,0.7,0.4c1,0,2.1,0,3.1,0c0.1,0,0.3,0,0.5,0
	C42.9,28.5,35.8,15.7,28.7,2.8c-9.1,16-18.1,31.9-27.3,47.9c0.3,0,0.5,0,0.6,0c1.5,0,3,0,4.4,0c0.4,0,0.6-0.1,0.8-0.5
	c1.5-2.7,3-5.4,4.4-8.1c0.2-0.4,0.5-0.6,1-0.6c8.1,0,16.2,0,24.2,0c0.5,0,0.7,0.2,0.9,0.6c1.3,2.5,2.7,5,4.1,7.5
	c0.1,0.1,0.1,0.2,0.3,0.4c0.1-0.2,0.2-0.4,0.2-0.5c0.8-2.2,1.5-4.5,2.3-6.7c0.2-0.5,0.1-0.9-0.1-1.4c-4.4-8-8.8-16-13.2-24.1
	C30.7,15.8,29.9,14.4,29,12.8z M27.8,2.3c-0.1,0-0.2,0-0.3,0c-2,0-4.1,0-6.1,0c-0.2,0-0.4,0.2-0.5,0.4c-2.4,4.1-4.7,8.2-7,12.3
	C9.7,22.4,5.5,29.7,1.3,37.1c-0.1,0.2-0.2,0.5-0.2,0.7c0,3.6,0,7.1,0,10.7c0,0.1,0,0.2,0,0.4c0,0,0.1,0,0.1,0
	C10,33.4,18.9,17.9,27.8,2.3z M19,31c3.9,0,7.7,0,11.6,0c-1.9-3.5-3.8-6.9-5.8-10.5C22.8,24.1,20.9,27.5,19,31z M16.6,35.4
	c5.5,0,10.9,0,16.3,0c0-0.1-0.1-0.2-0.1-0.3c-0.5-0.9-1-1.8-1.5-2.7c-0.1-0.2-0.3-0.3-0.5-0.3c-0.5,0-0.9,0-1.4,0c-3.5,0-7,0-10.5,0
	c-0.2,0-0.5,0-0.6,0.2C17.7,33.3,17.2,34.3,16.6,35.4z M50.1,42.5c-0.2,0-0.3,0-0.5,0c-1.1,0-2.2,0-3.2,0c-0.3,0-0.5,0.1-0.6,0.4
	c-0.8,2.4-1.7,4.9-2.5,7.3c0,0.1-0.1,0.2-0.1,0.4c1.2,0,2.4,0,3.6,0c0.3,0,0.5-0.1,0.6-0.4c0.8-2.4,1.6-4.8,2.5-7.2
	C50,42.9,50,42.7,50.1,42.5z"/>
<g>
	<path fill="#FFFFFF" d="M57.6,33.5v-8.8h8.5v8.8H57.6z"/>
	<path fill="#FFFFFF" d="M91.3,51.4c-4.9,0-9-1.1-12.4-3.3c-3.3-2.2-5.7-5.2-7.1-8.9l8.3-4.9c1.9,5,5.7,7.6,11.4,7.6
		c2.7,0,4.7-0.5,6-1.5c1.3-1,1.9-2.2,1.9-3.7c0-1.7-0.8-3.1-2.3-4.1c-1.6-1-4.3-2-8.3-3.1c-2.2-0.7-4.1-1.3-5.6-2
		c-1.5-0.7-3.1-1.5-4.6-2.6c-1.5-1.1-2.7-2.5-3.5-4.2C74.4,18.9,74,17,74,14.7c0-4.5,1.6-8,4.8-10.7c3.2-2.7,7-4,11.5-4
		c4,0,7.5,1,10.6,2.9c3,2,5.4,4.7,7.1,8.2l-8.2,4.7c-2-4.2-5.1-6.4-9.5-6.4c-2,0-3.6,0.5-4.8,1.4c-1.2,0.9-1.7,2.1-1.7,3.6
		c0,1.6,0.6,2.8,1.9,3.8c1.3,1,3.8,2,7.5,3.1c1.5,0.5,2.6,0.8,3.4,1.1c0.8,0.3,1.8,0.7,3.2,1.2c1.3,0.5,2.4,1,3.1,1.5
		c0.7,0.5,1.6,1.1,2.5,1.9c0.9,0.8,1.7,1.6,2.2,2.5s0.9,1.9,1.3,3.1c0.4,1.2,0.5,2.5,0.5,3.9c0,4.6-1.7,8.2-5,10.9
		C101,50.1,96.7,51.4,91.3,51.4z"/>
	<path fill="#FFFFFF" d="M143.4,1h9.7v49.4h-9.7V30H125v20.5h-9.7V1h9.7v19.6h18.4V1z"/>
	<path fill="#FFFFFF" d="M203.9,44c-5,5-11.1,7.5-18.2,7.5c-7.2,0-13.2-2.5-18.2-7.5c-5-5-7.5-11.1-7.5-18.3s2.5-13.3,7.5-18.3
		c5-5,11-7.5,18.2-7.5c7.2,0,13.2,2.5,18.2,7.5c5,5,7.5,11.1,7.5,18.3S208.9,39,203.9,44z M174.3,37.3c3.1,3,6.9,4.6,11.4,4.6
		s8.3-1.5,11.4-4.6c3.1-3,4.6-6.9,4.6-11.6c0-4.7-1.5-8.6-4.6-11.7c-3.1-3.1-6.9-4.6-11.4-4.6s-8.3,1.5-11.4,4.6
		c-3.1,3.1-4.6,6.9-4.6,11.7C169.7,30.4,171.2,34.3,174.3,37.3z"/>
	<path fill="#FFFFFF" d="M236.7,1c4.8,0,8.8,1.6,12,4.8c3.2,3.2,4.9,7.1,4.9,11.8c0,4.7-1.6,8.6-4.9,11.8c-3.3,3.2-7.3,4.8-12,4.8
		H228v16.2h-9.7V1H236.7z M236.7,25.1c2.1,0,3.8-0.7,5.2-2.2c1.4-1.4,2-3.2,2-5.3c0-2.2-0.7-4-2-5.4c-1.4-1.4-3.1-2.1-5.2-2.1H228
		v15H236.7z"/>
</g>
</svg>
