<?xml version="1.0" encoding="utf-8"?>
<!-- Generator: Adobe Illustrator 22.1.0, SVG Export Plug-In . SVG Version: 6.00 Build 0)  -->
<svg fill="#fff" version="1.1" id="Layer_1" xmlns="http://www.w3.org/2000/svg" xmlns:xlink="http://www.w3.org/1999/xlink" x="0px" y="0px"
	 viewBox="-49 141 512 512" enable-background="new -49 141 512 512" xml:space="preserve">
<path d="M206.1,141C65.8,141-49,255.8-49,395.2c0,45.9,12.4,90,35.3,129.8L-49,653l130.6-35.3c38,21.2,80.3,35.3,124.5,35.3
	C346.5,653,463,534.7,463,395.2S346.5,141,206.1,141z M207,608.9c-39.7,0-77.7-12.4-110.3-32.7l-7.9-4.4l-75.9,19.4l20.3-74.2
	l-5.3-7.9C6.6,475.6-4.9,435.8-4.9,395.2c0-116.5,94.5-210.1,211-210.1s212.7,92.7,212.7,210.1S322.6,608.9,207,608.9z"/>
<path d="M138.1,276.9l-16.8-0.9c-5.3,0-10.6,1.8-14.1,5.3c-7.9,7.1-21.2,20.3-24.7,38c-6.2,26.5,3.5,58.3,26.5,90s67.1,83,144.8,105
	c24.7,7.1,44.1,2.6,60-7.1c12.4-7.9,20.3-20.3,23-33.5l2.6-12.4c0.9-3.5-0.9-7.9-4.4-9.7l-55.6-25.6c-3.5-1.8-7.9-0.9-10.6,2.6
	L246.7,457c-1.8,1.8-4.4,2.6-7.1,1.8c-15-5.3-65.3-26.5-92.7-79.4c-0.9-2.6-0.9-5.3,0.9-7.1l21.2-23.8c1.8-2.6,2.6-6.2,1.8-8.8
	l-25.6-57.4C144.3,279.6,141.7,276.9,138.1,276.9"/>
</svg>
